<?xml version="1.0" standalone="no"?>
<!DOCTYPE svg PUBLIC "-//W3C//DTD SVG 20010904//EN"
 "http://www.w3.org/TR/2001/REC-SVG-20010904/DTD/svg10.dtd">
<svg version="1.0" xmlns="http://www.w3.org/2000/svg"
 width="888.000000pt" height="1000.000000pt" viewBox="0 0 888.000000 1000.000000"
 preserveAspectRatio="xMidYMid meet">

<g transform="translate(0.000000,1000.000000) scale(0.100000,-0.100000)"
fill="#000000" stroke="none">
<path d="M4783 9976 c-158 -38 -278 -150 -369 -341 -88 -185 -124 -376 -124
-660 0 -348 57 -576 189 -754 84 -113 67 -107 253 -93 89 7 234 22 322 33
l161 19 47 51 c54 59 109 159 144 261 24 72 54 211 54 254 l0 24 -155 0 c-143
0 -155 -1 -155 -18 0 -36 -43 -188 -65 -233 -41 -80 -125 -139 -201 -139 -63
0 -139 53 -174 121 -87 167 -92 733 -9 954 46 122 124 183 221 172 117 -14
176 -101 198 -293 5 -48 12 -89 15 -92 5 -5 48 0 254 30 l73 11 -7 70 c-10
107 -50 252 -95 346 -46 95 -143 201 -220 238 -105 51 -244 66 -357 39z"/>
<path d="M800 9352 l0 -618 288 -96 c158 -53 381 -124 496 -157 237 -68 225
-69 285 19 116 170 82 443 -73 594 -29 28 -71 60 -94 71 -23 11 -42 22 -42 25
0 3 22 13 49 23 57 20 129 86 156 143 68 143 30 371 -81 494 -46 51 -143 98
-225 110 -35 5 -220 10 -411 10 l-348 0 0 -618z m532 348 c77 -6 139 -15 157
-24 66 -34 99 -147 67 -230 -35 -91 -73 -101 -283 -79 l-153 17 0 163 0 163
43 0 c23 0 99 -5 169 -10z m-40 -605 c193 -33 237 -55 282 -140 49 -91 28
-206 -44 -242 -40 -20 -115 -14 -265 20 l-140 33 -3 177 c-2 127 1 177 9 177
6 0 79 -11 161 -25z"/>
<path d="M2010 9800 l0 -170 58 -1 c31 -1 109 -4 172 -8 l115 -6 3 -662 2
-662 38 -10 c37 -10 259 -51 274 -51 4 0 8 309 8 686 l0 687 170 -7 170 -7 0
185 0 186 -407 1 c-225 0 -452 3 -505 5 l-98 5 0 -171z"/>
<path d="M6318 9578 c-53 -216 -118 -486 -144 -601 -27 -114 -51 -201 -55
-195 -10 20 -243 1023 -264 1141 l-7 37 -169 0 c-139 0 -169 -3 -169 -14 0
-38 373 -1610 385 -1624 4 -4 209 50 313 83 l80 25 97 398 c79 322 267 1050
291 1125 5 16 -6 17 -128 17 l-134 0 -96 -392z"/>
<path d="M6800 9291 l0 -680 46 17 c25 9 92 37 147 62 l102 45 0 615 0 615
-147 3 -148 3 0 -680z"/>
<path d="M3170 9060 l0 -900 23 -5 c76 -17 678 -54 885 -55 l72 0 0 139 0 138
-287 7 c-159 4 -307 9 -331 13 l-42 5 2 212 3 211 258 -4 257 -3 0 181 0 181
-117 0 c-65 0 -182 3 -260 7 l-143 6 0 199 0 198 330 0 330 0 0 185 0 185
-490 0 -490 0 0 -900z"/>
<path d="M580 8599 c-91 -32 -201 -72 -245 -88 -44 -16 -128 -46 -187 -67 -79
-28 -108 -43 -112 -58 -3 -10 -11 -240 -17 -510 -28 -1116 41 -2058 216 -2915
63 -313 180 -755 196 -745 5 3 6 -2 3 -10 -5 -13 38 -162 55 -191 3 -5 6 -14
7 -20 6 -31 100 -296 129 -360 7 -16 39 -91 70 -165 84 -201 227 -490 238
-483 6 3 7 1 3 -6 -4 -6 -3 -17 2 -24 5 -7 30 -50 54 -97 72 -135 161 -281
296 -483 91 -137 128 -185 134 -175 7 9 8 8 4 -6 -7 -20 21 -59 35 -50 5 3 7
-1 4 -8 -2 -7 34 -62 81 -123 131 -167 156 -195 167 -188 6 3 7 1 3 -6 -13
-21 416 -487 437 -474 5 3 7 2 4 -4 -11 -17 317 -328 335 -317 6 4 8 3 5 -3
-6 -10 73 -85 189 -178 34 -27 93 -75 131 -105 260 -212 788 -578 1028 -714
33 -19 26 -21 156 56 130 78 487 323 482 331 -3 5 -2 7 4 4 11 -7 65 27 58 36
-3 4 -2 5 1 2 7 -4 80 46 145 98 19 15 68 53 109 84 41 31 107 81 145 112 39
31 77 61 85 68 8 6 54 44 103 84 75 62 85 74 75 88 -11 14 -11 14 3 4 13 -10
25 -3 75 43 32 30 58 59 56 65 -1 6 2 8 7 4 14 -8 382 355 374 368 -3 5 -2 7
4 4 6 -4 30 15 54 41 125 135 190 212 184 222 -4 6 -1 9 6 8 19 -5 259 291
406 503 102 145 214 319 207 319 -3 0 2 7 11 16 53 53 371 653 361 681 -3 8
-2 12 3 9 8 -5 134 266 143 306 1 9 -18 41 -44 71 -27 31 -48 60 -48 66 0 6
32 90 70 187 39 97 69 178 67 180 -2 2 -36 0 -77 -4 l-73 -7 -18 -50 c-134
-368 -229 -596 -344 -824 -41 -80 -79 -153 -84 -161 -9 -12 -29 3 -111 85 -62
62 -100 107 -100 120 1 11 15 78 33 149 l32 129 144 48 c79 27 145 50 148 52
4 5 -23 327 -28 330 -7 4 -184 49 -195 50 -6 0 -66 -8 -133 -18 l-122 -19 8
-80 c43 -431 -100 -809 -418 -1111 -258 -244 -634 -405 -947 -405 -83 0 -84 0
-78 23 3 12 6 31 6 42 0 18 8 20 87 22 308 9 651 163 893 403 189 187 304 394
357 642 18 89 25 357 10 412 -8 28 -9 28 -60 22 -29 -4 -73 -12 -99 -17 l-47
-11 7 -46 c4 -26 7 -108 7 -182 -1 -107 -5 -153 -23 -220 -31 -115 -108 -268
-186 -366 -65 -83 -191 -195 -281 -251 -125 -79 -319 -152 -444 -169 l-50 -6
61 153 c121 309 352 955 346 969 -3 6 -425 -83 -433 -92 -7 -6 -606 -2411
-602 -2414 5 -5 234 468 308 633 30 67 56 122 59 123 3 0 20 -37 37 -83 30
-79 32 -82 64 -85 35 -3 297 23 304 29 2 2 13 67 25 144 11 76 22 140 24 142
14 14 194 66 241 70 56 5 63 3 110 -31 118 -84 184 -126 198 -126 16 0 257
147 257 157 0 3 -16 71 -35 150 -20 79 -32 149 -29 156 4 7 38 44 75 82 37 39
78 82 91 97 13 16 30 28 38 28 17 0 253 -51 259 -56 5 -4 -107 -177 -183 -284
-34 -46 -65 -92 -71 -101 -5 -10 -43 -59 -82 -109 -40 -51 -70 -97 -66 -103 3
-5 2 -7 -4 -4 -8 5 -68 -60 -148 -162 -106 -134 -489 -521 -654 -661 -30 -25
-59 -50 -65 -55 -45 -42 -284 -238 -351 -287 -5 -4 -24 -19 -41 -32 -122 -98
-463 -331 -671 -460 -155 -96 -153 -95 -226 -47 -23 16 -76 50 -117 76 -195
125 -380 251 -500 340 -41 31 -106 79 -145 108 -38 28 -123 96 -188 149 -64
54 -119 98 -121 98 -3 0 -17 12 -33 28 -16 15 -60 54 -98 87 -197 171 -453
427 -605 604 -30 36 -62 72 -70 80 -9 9 -33 39 -55 68 -21 29 -43 49 -48 46
-6 -3 -7 -2 -4 4 3 5 -5 22 -19 39 -14 16 -22 22 -18 14 4 -9 3 -12 -2 -7 -5
5 -9 12 -9 17 0 18 -199 278 -209 273 -5 -3 -6 -1 -2 5 4 6 -11 36 -34 66 -22
30 -40 57 -40 60 0 3 -30 51 -67 108 -80 123 -180 297 -265 465 -42 81 -65
118 -71 110 -6 -8 -7 -6 -3 5 3 10 -22 76 -55 150 -34 73 -79 178 -101 233
-22 55 -44 105 -48 110 -5 6 -9 15 -9 20 -3 33 -34 104 -43 99 -7 -4 -8 -2 -4
4 4 7 -18 87 -48 179 -275 834 -403 1686 -432 2873 -5 208 10 999 20 1119 2
17 12 27 33 35 18 6 88 31 157 55 69 25 122 49 119 54 -3 6 -1 7 5 3 10 -6
166 43 196 61 6 4 16 8 21 9 6 1 36 12 67 24 l58 21 167 -59 c1355 -483 2670
-645 3843 -476 91 13 174 26 185 28 11 2 35 4 53 5 19 0 31 5 27 11 -3 5 0 7
8 4 20 -7 229 36 467 98 107 27 205 52 218 55 12 3 22 10 22 15 0 5 4 7 8 4
15 -9 487 151 536 182 6 3 19 8 28 9 9 2 80 30 158 64 l140 62 65 -28 c35 -15
69 -23 76 -19 7 4 9 3 6 -3 -7 -12 161 -85 176 -76 7 3 9 3 5 -2 -6 -7 99 -57
165 -79 9 -3 21 -16 26 -29 14 -37 33 -877 26 -1157 -10 -399 -43 -978 -60
-1056 -4 -20 0 -22 88 -28 50 -4 117 -9 148 -13 68 -6 62 -23 83 212 59 630
76 1211 56 1915 -6 250 -16 462 -21 471 -4 9 -131 69 -282 133 l-274 118 -84
-35 c-46 -19 -109 -46 -139 -60 -152 -70 -632 -237 -807 -282 -40 -11 -69 -23
-66 -28 3 -6 1 -7 -5 -3 -6 4 -53 -4 -104 -18 -355 -94 -803 -169 -1248 -208
-196 -18 -982 -17 -1190 0 -679 57 -1398 194 -1998 378 -61 20 -116 33 -121
30 -5 -4 -11 -3 -13 2 -1 4 -64 27 -138 51 -74 24 -216 72 -314 107 -99 35
-180 64 -180 63 -1 0 -75 -27 -166 -60z"/>
<path d="M3329 7328 c-264 -489 -310 -573 -318 -580 -11 -12 -554 -99 -562
-91 -3 5 -27 64 -52 133 -70 193 -172 475 -207 578 l-33 92 -859 0 -859 0 19
-25 c19 -23 305 -321 673 -700 80 -82 269 -278 420 -435 151 -157 324 -337
386 -400 l112 -116 97 -199 c53 -110 124 -258 159 -330 34 -71 100 -206 145
-300 45 -93 110 -228 145 -300 34 -71 102 -211 150 -310 48 -99 116 -238 150
-310 34 -71 102 -211 150 -310 48 -99 118 -243 155 -320 37 -77 107 -221 155
-320 48 -99 111 -229 140 -290 29 -60 103 -213 164 -339 61 -126 111 -233 111
-237 0 -5 -20 7 -45 26 -104 79 -255 129 -445 146 -117 11 -284 9 -297 -4 -13
-14 28 -141 64 -194 19 -29 54 -71 77 -92 56 -54 163 -131 170 -124 3 4 6 1 6
-6 0 -8 6 -11 16 -7 8 3 13 2 10 -3 -3 -5 29 -30 72 -57 109 -67 226 -160 302
-240 36 -38 69 -67 75 -65 5 1 7 -1 3 -4 -4 -4 12 -35 36 -69 24 -33 53 -78
64 -99 24 -45 26 -42 42 83 12 90 15 338 5 370 -4 11 -4 20 -2 20 5 0 82 -156
254 -517 43 -89 81 -162 84 -162 6 -1 622 2460 617 2464 -3 2 -292 -65 -295
-69 -2 -2 -190 -1159 -274 -1691 -23 -143 -45 -263 -48 -268 -4 -4 -49 109
-100 250 -51 142 -158 436 -236 653 -79 217 -222 613 -318 880 -197 543 -227
625 -333 895 -41 105 -89 226 -106 270 -16 44 -52 136 -79 204 -35 88 -46 127
-38 132 8 5 3 31 -19 92 l-31 85 262 123 c144 68 266 123 273 121 6 -1 46 -22
90 -45 407 -222 680 -367 688 -367 4 0 4 15 1 33 -3 17 -14 113 -25 212 -11
99 -33 299 -50 445 -16 146 -30 276 -29 290 0 26 -2 24 423 464 104 108 187
199 184 201 -3 3 -207 48 -454 100 -247 52 -457 98 -466 103 -15 6 -219 410
-369 730 -21 45 -40 82 -43 82 -2 0 -73 -127 -157 -282z m390 -279 c127 -263
141 -287 167 -292 16 -3 211 -44 433 -91 223 -48 408 -86 413 -86 4 0 8 -5 8
-11 0 -5 -128 -143 -285 -306 -206 -213 -285 -302 -285 -318 0 -27 87 -834 95
-882 4 -22 2 -33 -6 -33 -7 0 -121 58 -253 129 -133 70 -293 156 -358 190
l-116 62 -59 -27 c-32 -15 -145 -69 -252 -120 -107 -52 -199 -94 -205 -94 -7
0 -17 15 -23 33 -7 17 -51 139 -98 271 l-86 238 12 80 11 79 -28 32 c-16 18
-46 50 -67 73 -33 35 -52 79 -142 330 -58 159 -105 294 -105 300 0 7 107 28
272 55 l273 44 133 245 c73 135 152 281 176 325 24 44 65 120 91 169 l49 90
48 -100 c26 -54 110 -228 187 -385z m-976 -1135 c18 -20 36 -43 40 -50 10 -17
-2 -109 -13 -97 -10 11 -70 183 -64 183 2 0 19 -16 37 -36z"/>
<path d="M3400 6778 c-11 -12 -29 -45 -39 -73 -20 -54 -51 -189 -51 -225 0
-11 -2 -20 -5 -20 -3 0 -38 22 -78 49 -89 60 -162 97 -209 106 -29 6 -40 3
-57 -14 -12 -12 -21 -27 -21 -34 0 -40 35 -117 94 -207 37 -56 66 -103 64
-105 -2 -1 -45 -10 -96 -19 -166 -30 -242 -69 -242 -126 0 -25 8 -34 52 -60
52 -29 148 -56 241 -67 26 -3 47 -8 47 -11 0 -3 -23 -38 -50 -78 -58 -83 -110
-189 -110 -221 0 -13 9 -32 21 -44 39 -39 123 -9 278 98 35 24 64 43 66 41 1
-2 8 -38 14 -82 22 -136 59 -230 101 -251 37 -19 68 -1 97 57 24 49 62 201 63
251 0 15 2 27 4 27 2 0 47 -29 100 -64 147 -98 232 -118 258 -61 8 19 8 35 -1
67 -13 44 -86 170 -128 221 -13 16 -23 32 -23 36 0 5 27 11 59 15 80 9 198 43
239 68 105 65 28 140 -185 181 -59 11 -109 21 -111 23 -2 1 26 44 61 96 98
144 119 234 62 260 -37 17 -115 -14 -228 -89 -54 -36 -99 -64 -101 -62 -2 2
-8 38 -15 79 -33 210 -104 309 -171 238z m86 -73 c14 -30 35 -105 46 -166 l21
-111 -49 -44 c-27 -24 -53 -43 -58 -44 -4 0 -30 18 -56 40 -45 38 -48 43 -44
78 23 167 67 302 99 302 10 0 26 -22 41 -55z m-421 -145 c46 -20 220 -134 231
-151 3 -5 2 -38 -1 -74 l-7 -64 -66 -7 c-76 -8 -72 -11 -162 125 -76 115 -99
191 -56 191 8 0 35 -9 61 -20z m842 5 c9 -26 -26 -103 -96 -208 l-66 -99 -69
6 c-39 4 -71 8 -72 9 -1 1 -5 31 -8 67 l-7 65 67 50 c90 66 120 85 174 106 56
22 69 23 77 4z m-497 -259 c0 -15 -33 -35 -57 -36 -20 0 -23 5 -23 43 0 24 3
46 6 50 7 7 74 -44 74 -57z m150 8 c0 -40 -2 -44 -23 -44 -13 0 -32 9 -41 19
-17 19 -17 21 15 49 19 17 37 28 41 26 5 -3 8 -25 8 -50z m-270 -107 c0 -13
-9 -32 -21 -43 -21 -19 -21 -19 -50 15 -33 40 -26 51 34 51 32 0 37 -3 37 -23z
m242 -15 c31 -34 34 -44 32 -85 -3 -57 -41 -104 -91 -113 -46 -9 -74 1 -111
36 -28 26 -32 37 -32 82 0 45 4 57 32 85 28 29 38 33 84 33 47 0 55 -3 86 -38z
m155 30 c9 -6 5 -17 -17 -43 l-30 -34 -20 24 c-11 13 -20 32 -20 42 0 15 7 19
38 19 20 0 43 -4 49 -8z m-509 -51 c23 -28 42 -53 42 -58 -1 -4 -20 -30 -43
-56 l-43 -49 -95 17 c-159 27 -239 57 -239 90 0 34 171 88 325 104 6 1 29 -21
53 -48z m725 23 c143 -27 210 -65 176 -99 -23 -23 -115 -52 -224 -71 l-98 -17
-43 49 c-24 27 -43 53 -44 57 0 5 19 31 43 57 47 55 35 53 190 24z m-631 -131
c10 -9 18 -27 18 -40 0 -21 -4 -23 -50 -23 -27 0 -50 2 -50 6 0 7 54 74 59 74
3 0 13 -7 23 -17z m402 -17 c14 -19 26 -37 26 -40 0 -3 -22 -6 -50 -6 -55 0
-64 15 -34 58 20 29 27 28 58 -12z m-387 -90 c1 -1 5 -31 9 -68 l7 -66 -69
-51 c-89 -66 -198 -123 -227 -119 -12 2 -23 11 -25 21 -5 25 55 138 118 225
l53 72 66 -6 c36 -4 67 -7 68 -8z m502 -55 c63 -84 121 -194 121 -227 0 -19
-5 -24 -24 -24 -35 0 -163 68 -236 126 -59 46 -62 50 -56 84 3 19 6 49 6 67 0
31 2 32 48 36 26 2 57 4 69 5 16 2 34 -16 72 -67z m-398 39 l24 -20 -35 -30
c-31 -27 -35 -28 -42 -13 -3 10 -7 33 -7 51 -1 39 23 43 60 12z m169 -24 c0
-25 -3 -47 -8 -50 -4 -2 -23 9 -42 25 l-35 29 24 20 c13 11 32 20 42 20 16 0
19 -8 19 -44z m-56 -70 l49 -43 -18 -99 c-20 -113 -48 -199 -72 -226 -15 -17
-18 -17 -34 -2 -10 9 -27 44 -38 78 -25 73 -54 247 -43 257 27 26 95 79 100
79 4 -1 29 -20 56 -44z"/>
<path d="M3404 6186 c-83 -36 -51 -156 42 -156 90 0 123 114 45 155 -36 18
-47 18 -87 1z"/>
<path d="M3935 7447 c11 -8 103 -60 205 -117 450 -250 606 -354 750 -500 102
-103 150 -190 157 -284 4 -46 -13 -165 -66 -477 -39 -229 -71 -426 -71 -439 0
-19 4 -21 23 -15 12 4 119 27 237 52 118 25 216 46 217 47 2 2 433 1736 433
1742 0 2 -429 4 -952 4 -798 0 -949 -2 -933 -13z"/>
<path d="M5861 7423 c-60 -225 -423 -1695 -419 -1698 2 -2 46 3 98 11 52 9
169 26 260 38 l165 22 87 344 c82 327 198 820 268 1140 17 80 34 153 36 163 5
16 -11 17 -240 17 l-245 0 -10 -37z"/>
<path d="M1162 6208 c-32 -103 -42 -168 -42 -266 0 -119 28 -213 106 -357 170
-314 196 -394 198 -597 1 -121 2 -126 19 -110 10 8 15 22 13 29 -3 7 0 12 6
10 27 -5 167 214 204 322 37 106 41 182 14 260 -27 82 -63 133 -174 251 -238
250 -265 291 -305 463 l-16 69 -23 -74z"/>
<path d="M585 5508 c8 -77 39 -233 55 -273 6 -16 11 -30 10 -30 -3 0 42 -110
67 -164 118 -254 356 -535 637 -751 38 -29 65 -46 60 -39 -4 8 -23 38 -42 68
-29 45 -62 112 -102 206 -31 71 -56 196 -95 475 -8 57 -24 128 -35 158 -20 54
-72 140 -106 178 -49 53 -160 122 -289 179 -36 16 -151 55 -162 55 -2 0 -1
-28 2 -62z m283 -653 c-3 -3 -9 2 -12 12 -6 14 -5 15 5 6 7 -7 10 -15 7 -18z"/>
<path d="M1756 5038 c-59 -385 -62 -634 -10 -886 30 -147 103 -338 163 -426
15 -23 31 -49 34 -59 4 -11 12 -15 18 -11 8 5 9 3 4 -6 -5 -8 -1 -18 10 -27
11 -7 15 -13 11 -13 -5 0 -3 -7 4 -15 7 -8 16 -12 21 -9 5 3 9 2 8 -3 -4 -20
2 -34 12 -28 6 4 8 14 5 22 -3 8 -2 12 3 8 11 -6 90 146 124 240 78 220 55
363 -96 580 -171 244 -258 437 -283 623 -3 29 -10 52 -14 52 -4 0 -10 -19 -14
-42z"/>
<path d="M1407 3883 c-63 -269 -74 -561 -27 -708 27 -85 58 -148 69 -140 5 2
8 -2 7 -10 -2 -26 116 -135 230 -210 62 -41 135 -100 162 -130 58 -63 53 -68
73 80 12 95 7 218 -13 307 -19 81 -104 238 -206 381 -51 70 -92 129 -92 132 0
2 -12 21 -26 42 -51 75 -116 241 -130 328 -3 25 -9 45 -13 45 -3 0 -19 -53
-34 -117z"/>
<path d="M2256 3488 c-21 -157 -21 -406 -1 -524 45 -259 165 -469 351 -610 57
-44 204 -133 208 -126 12 23 37 120 51 197 15 90 21 266 9 278 -4 4 -8 24 -10
46 -9 99 -91 226 -254 395 -60 61 -125 131 -146 156 -20 25 -42 44 -48 42 -6
-2 -8 -1 -5 3 4 3 -15 42 -42 87 -27 45 -49 85 -49 90 0 5 -5 6 -12 2 -7 -4
-8 -3 -4 5 8 12 -13 81 -25 81 -3 0 -14 -55 -23 -122z"/>
<path d="M2113 2378 c7 -217 35 -320 124 -461 13 -21 28 -35 33 -32 5 3 8 0 5
-7 -11 -30 139 -149 267 -211 161 -79 317 -123 601 -172 l37 -6 -5 33 c-14 84
-57 209 -103 302 -31 64 -97 128 -152 148 -66 24 -189 50 -202 42 -7 -4 -8 -2
-4 4 4 7 1 12 -9 12 -19 0 -154 66 -177 87 -9 8 -22 12 -29 7 -7 -4 -10 -3 -6
3 4 6 -18 30 -48 53 -68 52 -157 147 -254 268 -40 50 -76 92 -79 92 -2 0 -2
-73 1 -162z m362 -638 c-3 -5 -12 -10 -18 -10 -7 0 -6 4 3 10 19 12 23 12 15
0z"/>
</g>
</svg>
